<svg xmlns="http://www.w3.org/2000/svg" viewBox="0 0 160 160" fill="none" role="img" aria-hidden="true">
  <title>Empty file collection</title>
  <defs>
    <linearGradient id="emptyFilesBg" x1="0" y1="0" x2="0" y2="1">
      <stop offset="0%" stop-color="currentColor" stop-opacity="0.06" />
      <stop offset="100%" stop-color="currentColor" stop-opacity="0.02" />
    </linearGradient>
  </defs>
  <circle cx="80" cy="80" r="68" fill="url(#emptyFilesBg)" />
  <g stroke="currentColor" stroke-width="2" stroke-linejoin="round" fill="currentColor" fill-opacity="0.05">
    <path d="M48 56 h48 l16 16 v48 a4 4 0 0 1 -4 4 H48 a4 4 0 0 1 -4 -4 V60 a4 4 0 0 1 4 -4 z" />
    <path d="M96 56 v16 h16" fill="none" />
  </g>
  <g stroke="currentColor" stroke-width="2" stroke-linecap="round" stroke-opacity="0.5">
    <line x1="58" y1="92" x2="98" y2="92" />
    <line x1="58" y1="104" x2="92" y2="104" />
    <line x1="58" y1="116" x2="86" y2="116" />
  </g>
  <g stroke="currentColor" stroke-width="2" stroke-linecap="round" stroke-opacity="0.6">
    <line x1="116" y1="36" x2="116" y2="44" />
    <line x1="120" y1="40" x2="112" y2="40" />
    <line x1="40" y1="44" x2="40" y2="50" />
    <line x1="43" y1="47" x2="37" y2="47" />
  </g>
</svg>
